<svg width="171" height="48" viewBox="0 0 50 48" fill="none" xmlns="http://www.w3.org/2000/svg">
  <g id="IMAGE">
    <path id="Vector"
      d="M27.9369 11.9175C22.5163 12.6142 11.0936 9.6156 10.3969 4.19479L10.3166 4.20511C10.8742 8.54367 13.1325 12.483 16.5945 15.1566C20.0566 17.8302 24.4389 19.019 28.7775 18.4616C31.3806 18.127 34.0101 18.8402 36.0875 20.4443C38.1649 22.0484 39.5198 24.4121 39.8544 27.0152C40.1896 29.6182 39.4768 32.2481 37.8731 34.3256C36.2693 36.4034 33.9059 37.7587 31.3029 38.0939C28.6996 38.4289 26.07 37.7161 23.9923 36.1124C21.9147 34.5086 20.5592 32.1452 20.2241 29.5422C19.948 27.3938 19.2514 25.321 18.1741 23.4419C17.0968 21.5629 15.66 19.9143 13.9456 18.5906C12.2312 17.2668 10.273 16.2936 8.18248 15.7267C6.09203 15.1597 3.91036 15.0101 1.76207 15.2863L1.7723 15.3659C7.19209 14.6693 12.9812 24.9578 13.6801 30.3791L13.679 30.3792C14.0949 33.6148 15.4608 36.6543 17.604 39.1135C19.7473 41.5727 22.5716 43.3412 25.7199 44.1952C28.8683 45.0493 32.1991 44.9507 35.2914 43.9116C38.3836 42.8727 41.0983 40.9401 43.0923 38.3584C45.086 35.7765 46.2696 32.6615 46.4932 29.4069C46.7168 26.1525 45.9701 22.905 44.348 20.0748C42.7258 17.2446 40.3008 14.9591 37.3797 13.5071C34.4584 12.0551 31.1723 11.502 27.9369 11.9175Z"
      fill="url(#paint0_linear_1_60)" />
  </g>
  <defs>
    <linearGradient id="paint0_linear_1_60" x1="0" y1="0" x2="49.7901" y2="47.6409" gradientUnits="userSpaceOnUse">
      <stop stop-color="#57B8FF" />
      <stop offset="0.940625" stop-color="#038EF2" />
      <stop offset="1" stop-color="white" stop-opacity="0" />
    </linearGradient>
  </defs>
</svg>